<?xml version="1.0" encoding="UTF-8" standalone="no"?>
<!-- Created with Inkscape (http://www.inkscape.org/) -->

<svg
   width="57.612198mm"
   height="37.992668mm"
   viewBox="0 0 57.612198 37.992668"
   version="1.1"
   id="svg1"
   xml:space="preserve"
   xmlns:inkscape="http://www.inkscape.org/namespaces/inkscape"
   xmlns:sodipodi="http://sodipodi.sourceforge.net/DTD/sodipodi-0.dtd"
   xmlns="http://www.w3.org/2000/svg"
   xmlns:svg="http://www.w3.org/2000/svg"><sodipodi:namedview
     id="namedview1"
     pagecolor="#ffffff"
     bordercolor="#000000"
     borderopacity="0.25"
     inkscape:showpageshadow="2"
     inkscape:pageopacity="0.0"
     inkscape:pagecheckerboard="0"
     inkscape:deskcolor="#d1d1d1"
     inkscape:document-units="mm" /><defs
     id="defs1" /><g
     inkscape:label="Layer 1"
     inkscape:groupmode="layer"
     id="layer1"
     transform="translate(-79.096979,-54.397398)"><g
       id="g9"
       transform="translate(47.405299,-21.140201)"><g
         id="g2"
         transform="translate(-81.632294,20.621611)"><g
           id="g10"
           transform="translate(-0.5176928,-1.0353856)"
           inkscape:export-filename="logo_noText.svg"
           inkscape:export-xdpi="96"
           inkscape:export-ydpi="96"><g
             id="g1"
             transform="matrix(1.1074728,0,0,1,20.555165,1.0066755)"><path
               id="path9"
               style="stroke-width:0.197253"
               d="m 131.75356,68.004601 a 12.489076,8.8820448 0 0 1 -12.48907,8.882044 12.489076,8.8820448 0 0 1 -12.48908,-8.882044 12.489076,8.8820448 0 0 1 12.48908,-8.882045 12.489076,8.8820448 0 0 1 12.48907,8.882045 z" /></g><path
             style="fill:#eb1a22;stroke-width:0.995791"
             d="m 169.84824,93.813389 c -0.22701,-0.06161 -1.63215,-1.47424 -3.12253,-3.13921 -1.49038,-1.66498 -2.92809,-3.0971 -3.1949,-3.1825 -0.45557,-0.14582 -2.04363,0.7402 -2.07067,1.15529 -0.007,0.0992 -0.54245,0.77573 -1.19106,1.50334 l -1.1793,1.32291 0.94982,-2.07928 c 1.67078,-3.65759 1.80315,-3.24702 -2.5281,-7.84147 -2.40902,-2.55543 -3.90699,-3.689272 -4.19066,-3.640002 -0.52786,0.0917 -6.80352,6.454742 -6.80352,6.922712 0,0.17839 0.40939,1.91747 0.90976,3.86461 0.50036,1.94714 0.88406,3.56053 0.85267,3.58531 -0.0314,0.0248 -1.2377,-1.24869 -2.68069,-2.82994 -1.44298,-1.58124 -2.82872,-2.942459 -3.07942,-3.02492 -0.27528,-0.0905 -1.47034,0.41777 -3.01715,1.28334 -1.40873,0.788301 -3.50498,1.95125 -4.65834,2.58432 l -2.09702,1.15104 3.76864,-4.11911 3.76865,-4.119111 2.07986,-0.479049 c 1.14392,-0.26348 2.13068,-0.56195 2.19277,-0.66328 0.0621,-0.101324 -0.98164,-1.65809 -2.31943,-3.45949 -1.33778,-1.80139 -3.35199,-4.55414 -4.47603,-6.11721 -1.12404,-1.56307 -2.13476,-2.8987 -2.24606,-2.96807 -0.11129,-0.0694 -2.54136,3.72262 -5.40015,8.42664 l -5.19781,8.55275 -1.00485,-2.09551 c -0.55267,-1.15253 -1.12084,-2.02321 -1.26261,-1.93485 -0.14176,0.08831 -2.16022,2.29846 -4.48546,4.91134 -2.32524,2.61288 -4.27014,4.75069 -4.322,4.75069 -0.0519,0 1.96962,-3.325649 4.49219,-7.39033 l 4.58649,-7.39033 1.36916,-0.15132 c 0.75304,-0.0832 1.8385,-0.18063 2.41214,-0.21644 l 1.04296,-0.0651 3.67953,-6.00562 c 2.02374,-3.30309 3.7503,-6.07322 3.83681,-6.15584 0.0865,-0.0826 0.84872,0.73998 1.69381,1.82801 0.84509,1.08803 1.5789,1.9355 1.63069,1.88327 0.0518,-0.0522 0.2625,-0.82267 0.46824,-1.71209 1.62415,-7.02107 8.51038,-11.743513 15.53024,-10.65035 5.86978,0.91407 10.36894,5.32264 11.72209,11.486059 l 0.15435,0.927128 -5.49614,-0.199527 c -4.69215,-0.17034 -5.53489,0.0601 -5.72902,0.40991 -0.14517,0.26161 -0.34875,-1.05455 -0.5627,-3.63802 -0.18437,-2.22636 -0.38304,-4.09754 -0.44147,-4.15818 -0.31948,-0.33152 -0.47972,0.73213 -0.85257,5.65919 -0.22606,2.9872 -0.48378,5.43127 -0.57272,5.43127 -0.0889,0 -0.31775,-1.16086 -0.50845,-2.57969 -0.19072,-1.41883 -0.4357,-2.81781 -0.54441,-3.10886 -0.18699,-0.50059 -0.21157,-0.49345 -0.45537,0.1323 -0.14175,0.3638 -0.30299,0.89958 -0.35831,1.19062 -0.0962,0.50621 -0.36222,0.53491 -6.13154,0.66146 -7.19032,0.15772 -6.14938,0.529171 1.48293,0.529171 4.44345,0 4.94823,-0.045 4.94823,-0.440981 0,-0.24253 0.0834,-0.3569 0.18526,-0.254139 0.10189,0.10275 0.42656,1.794459 0.72149,3.759349 0.29493,1.96488 0.6543,3.5973 0.79861,3.627579 0.15822,0.0332 0.41285,-2.045319 0.64151,-5.236609 0.22517,-3.14248 0.4543,-5.02301 0.56416,-4.6302 0.10175,0.3638 0.19676,1.15259 0.21115,1.75286 0.0334,1.3937 0.3,2.74505 0.54156,2.74505 0.1031,0 0.32194,-0.29765 0.4863,-0.66146 l 0.34461,-0.676702 9.47174,-0.137274 1.26319,-0.176106 0.0305,1.714942 c 0.0346,1.946891 -0.60206,4.25836 -1.63954,6.33104 -1.02567,2.04904 -4.24358,4.755467 -5.09624,4.755467 -0.33982,0 0.39598,-0.228887 0.39598,-0.139557 0,0.0893 2.61592,2.89849 5.81316,6.24254 4.43021,4.63363 5.72535,6.13618 5.44399,6.31581 -0.38115,0.24334 -0.85358,0.26455 -1.569,0.0704 z"
             id="path5"
             sodipodi:nodetypes="ssscscssssssscsscccsssscscscsssccscsssccsscssscssssssssscssssssscccssssssss" /></g></g></g></g></svg>
