<?xml version="1.0" encoding="UTF-8" standalone="no"?>
<!-- Created with Inkscape (http://www.inkscape.org/) -->

<svg
   width="57.612186mm"
   height="48.059658mm"
   viewBox="0 0 57.612186 48.059658"
   version="1.1"
   id="svg1"
   xml:space="preserve"
   xmlns:inkscape="http://www.inkscape.org/namespaces/inkscape"
   xmlns:sodipodi="http://sodipodi.sourceforge.net/DTD/sodipodi-0.dtd"
   xmlns="http://www.w3.org/2000/svg"
   xmlns:svg="http://www.w3.org/2000/svg"><sodipodi:namedview
     id="namedview1"
     pagecolor="#ffffff"
     bordercolor="#000000"
     borderopacity="0.25"
     inkscape:showpageshadow="2"
     inkscape:pageopacity="0.0"
     inkscape:pagecheckerboard="0"
     inkscape:deskcolor="#d1d1d1"
     inkscape:document-units="mm" /><defs
     id="defs1" /><g
     inkscape:label="Layer 1"
     inkscape:groupmode="layer"
     id="layer1"
     transform="translate(-79.614672,-55.432783)"><g
       id="g9"
       transform="translate(47.405299,-21.140201)"><g
         id="g2"
         transform="translate(-81.632294,20.621611)"><g
           id="g13"
           inkscape:export-filename="g13.svg"
           inkscape:export-xdpi="96"
           inkscape:export-ydpi="96"><g
             id="g10"><g
               id="g1"
               transform="matrix(1.1074728,0,0,1,20.555165,1.0066755)"><path
                 id="path9"
                 style="stroke-width:0.197253"
                 d="m 131.75356,68.004601 a 12.489076,8.8820448 0 0 1 -12.48907,8.882044 12.489076,8.8820448 0 0 1 -12.48908,-8.882044 12.489076,8.8820448 0 0 1 12.48908,-8.882045 12.489076,8.8820448 0 0 1 12.48907,8.882045 z" /></g><path
               style="fill:#eb1a22;stroke-width:0.995791"
               d="m 169.84824,93.813389 c -0.22701,-0.06161 -1.63215,-1.47424 -3.12253,-3.13921 -1.49038,-1.66498 -2.92809,-3.0971 -3.1949,-3.1825 -0.45557,-0.14582 -2.04363,0.7402 -2.07067,1.15529 -0.007,0.0992 -0.54245,0.77573 -1.19106,1.50334 l -1.1793,1.32291 0.94982,-2.07928 c 1.67078,-3.65759 1.80315,-3.24702 -2.5281,-7.84147 -2.40902,-2.55543 -3.90699,-3.689272 -4.19066,-3.640002 -0.52786,0.0917 -6.80352,6.454742 -6.80352,6.922712 0,0.17839 0.40939,1.91747 0.90976,3.86461 0.50036,1.94714 0.88406,3.56053 0.85267,3.58531 -0.0314,0.0248 -1.2377,-1.24869 -2.68069,-2.82994 -1.44298,-1.58124 -2.82872,-2.942459 -3.07942,-3.02492 -0.27528,-0.0905 -1.47034,0.41777 -3.01715,1.28334 -1.40873,0.788301 -3.50498,1.95125 -4.65834,2.58432 l -2.09702,1.15104 3.76864,-4.11911 3.76865,-4.119111 2.07986,-0.479049 c 1.14392,-0.26348 2.13068,-0.56195 2.19277,-0.66328 0.0621,-0.101324 -0.98164,-1.65809 -2.31943,-3.45949 -1.33778,-1.80139 -3.35199,-4.55414 -4.47603,-6.11721 -1.12404,-1.56307 -2.13476,-2.8987 -2.24606,-2.96807 -0.11129,-0.0694 -2.54136,3.72262 -5.40015,8.42664 l -5.19781,8.55275 -1.00485,-2.09551 c -0.55267,-1.15253 -1.12084,-2.02321 -1.26261,-1.93485 -0.14176,0.08831 -2.16022,2.29846 -4.48546,4.91134 -2.32524,2.61288 -4.27014,4.75069 -4.322,4.75069 -0.0519,0 1.96962,-3.325649 4.49219,-7.39033 l 4.58649,-7.39033 1.36916,-0.15132 c 0.75304,-0.0832 1.8385,-0.18063 2.41214,-0.21644 l 1.04296,-0.0651 3.67953,-6.00562 c 2.02374,-3.30309 3.7503,-6.07322 3.83681,-6.15584 0.0865,-0.0826 0.84872,0.73998 1.69381,1.82801 0.84509,1.08803 1.5789,1.9355 1.63069,1.88327 0.0518,-0.0522 0.2625,-0.82267 0.46824,-1.71209 1.62415,-7.02107 8.51038,-11.743513 15.53024,-10.65035 5.86978,0.91407 10.36894,5.32264 11.72209,11.486059 l 0.15435,0.927128 -5.49614,-0.199527 c -4.69215,-0.17034 -5.53489,0.0601 -5.72902,0.40991 -0.14517,0.26161 -0.34875,-1.05455 -0.5627,-3.63802 -0.18437,-2.22636 -0.38304,-4.09754 -0.44147,-4.15818 -0.31948,-0.33152 -0.47972,0.73213 -0.85257,5.65919 -0.22606,2.9872 -0.48378,5.43127 -0.57272,5.43127 -0.0889,0 -0.31775,-1.16086 -0.50845,-2.57969 -0.19072,-1.41883 -0.4357,-2.81781 -0.54441,-3.10886 -0.18699,-0.50059 -0.21157,-0.49345 -0.45537,0.1323 -0.14175,0.3638 -0.30299,0.89958 -0.35831,1.19062 -0.0962,0.50621 -0.36222,0.53491 -6.13154,0.66146 -7.19032,0.15772 -6.14938,0.529171 1.48293,0.529171 4.44345,0 4.94823,-0.045 4.94823,-0.440981 0,-0.24253 0.0834,-0.3569 0.18526,-0.254139 0.10189,0.10275 0.42656,1.794459 0.72149,3.759349 0.29493,1.96488 0.6543,3.5973 0.79861,3.627579 0.15822,0.0332 0.41285,-2.045319 0.64151,-5.236609 0.22517,-3.14248 0.4543,-5.02301 0.56416,-4.6302 0.10175,0.3638 0.19676,1.15259 0.21115,1.75286 0.0334,1.3937 0.3,2.74505 0.54156,2.74505 0.1031,0 0.32194,-0.29765 0.4863,-0.66146 l 0.34461,-0.676702 9.47174,-0.137274 1.26319,-0.176106 0.0305,1.714942 c 0.0346,1.946891 -0.60206,4.25836 -1.63954,6.33104 -1.02567,2.04904 -4.24358,4.755467 -5.09624,4.755467 -0.33982,0 0.39598,-0.228887 0.39598,-0.139557 0,0.0893 2.61592,2.89849 5.81316,6.24254 4.43021,4.63363 5.72535,6.13618 5.44399,6.31581 -0.38115,0.24334 -0.85358,0.26455 -1.569,0.0704 z"
               id="path5"
               sodipodi:nodetypes="ssscscssssssscsscccsssscscscsssccscsssccsscssscssssssssscssssssscccssssssss" /></g><g
             id="text10"
             style="font-size:3.175px;text-align:center;text-anchor:middle;white-space:pre;inline-size:53.5198;stroke-width:0.264583"
             transform="translate(0.30505339,3.7216516)"
             aria-label="F A M&#10;Mountain First Aid"><path
               style="font-weight:600;font-size:7.76111px;font-family:'CaskaydiaCove Nerd Font';-inkscape-font-specification:'CaskaydiaCove Nerd Font, Semi-Bold'"
               d="m 132.03128,93.803925 v -5.381239 h 3.63802 v 0.841292 h -2.72473 v 1.648478 h 2.0047 v 0.845082 h -2.0047 v 2.046387 z m 3.90329,0 z m 4.68016,0 1.55374,-5.381239 h 1.17478 l 1.55374,5.381239 h -0.96635 l -0.29938,-1.136882 h -1.7508 l -0.29938,1.136882 z m 1.48553,-1.978174 h 1.3112 l -0.62149,-2.353344 h -0.0682 z m 2.92936,1.978174 z m 4.9947,0 v -5.381239 h 1.32636 l 0.46991,2.368503 h 0.0606 l 0.46991,-2.368503 h 1.32636 v 5.381239 h -0.86024 v -4.426258 h -0.1099 l -0.50781,2.417767 h -0.69728 l -0.50781,-2.417767 h -0.1099 v 4.426258 z"
               id="path13" /><path
               style="font-weight:600;font-size:4.23333px;font-family:'CaskaydiaCove Nerd Font';-inkscape-font-specification:'CaskaydiaCove Nerd Font, Semi-Bold'"
               d="m 120.67557,100.24804 v -2.935219 h 0.72347 l 0.25632,1.29191 h 0.0331 l 0.25631,-1.29191 h 0.72347 v 2.935219 h -0.46922 v -2.414321 h -0.0599 l -0.27699,1.318782 h -0.38034 l -0.27698,-1.318782 h -0.06 v 2.414321 z m 3.47679,0.0413 q -0.46716,0 -0.72347,-0.297655 -0.25631,-0.297656 -0.25631,-0.839224 0,-0.543636 0.25631,-0.839225 0.25631,-0.297656 0.72347,-0.297656 0.46715,0 0.72347,0.297656 0.25631,0.295589 0.25631,0.839225 0,0.541568 -0.25631,0.839224 -0.25632,0.297655 -0.72347,0.297655 z m 0,-0.475422 q 0.21704,0 0.33486,-0.171565 0.11989,-0.173633 0.11989,-0.489892 0,-0.318327 -0.11989,-0.489892 -0.11782,-0.171566 -0.33486,-0.171566 -0.21704,0 -0.33693,0.171566 -0.11782,0.171565 -0.11782,0.489892 0,0.316259 0.11782,0.489892 0.11989,0.171565 0.33693,0.171565 z m 2.20348,0.475422 q -0.32453,0 -0.50436,-0.20464 -0.17777,-0.206703 -0.17777,-0.58084 v -1.446939 h 0.51056 v 1.364257 q 0,0.188102 0.093,0.291455 0.0951,0.101285 0.26459,0.101285 0.21497,0 0.32246,-0.150895 0.10955,-0.152962 0.10955,-0.510562 v -1.09554 h 0.51056 v 1.732193 l 0.30179,0.04548 v 0.413416 l -0.77514,0.0207 -0.031,-0.442354 h -0.0537 q -0.0517,0.223244 -0.20257,0.343134 -0.14883,0.11989 -0.36794,0.11989 z m 3.16053,-0.0413 v -1.343586 q 0,-0.198437 -0.0909,-0.305924 -0.0889,-0.107487 -0.25425,-0.107487 -0.46095,0 -0.46095,0.607714 v 1.149283 h -0.51057 v -2.191079 h 0.45889 l 0.0434,0.396875 h 0.0579 q 0.0269,-0.221175 0.15502,-0.328662 0.12816,-0.109554 0.38448,-0.109554 0.34726,0 0.53743,0.21084 0.19017,0.210839 0.19017,0.595312 v 1.426268 z m 2.5156,0.0413 q -0.54156,0 -0.78134,-0.21911 -0.23771,-0.219105 -0.23771,-0.700728 v -0.84956 h -0.53537 v -0.463021 h 0.53537 v -0.661458 h 0.50849 v 0.661458 h 0.98185 v 0.463021 h -0.98185 V 99.3282 q 0,0.256315 0.12816,0.37207 0.13022,0.113688 0.42375,0.113688 0.0971,0 0.20877,-0.01033 0.11162,-0.0124 0.25425,-0.03101 l 0.0496,0.467152 q -0.1385,0.0248 -0.27079,0.0372 -0.13229,0.0124 -0.28319,0.0124 z m 2.46394,-0.0207 -0.0289,-0.48369 h -0.0476 q -0.0269,0.25218 -0.2067,0.37827 -0.17777,0.12609 -0.47129,0.12609 -0.34727,0 -0.5395,-0.16743 -0.19017,-0.169499 -0.19017,-0.481624 0,-0.359668 0.25631,-0.551904 0.25632,-0.192236 0.72554,-0.192236 0.25011,0 0.43408,0.03927 v -0.04341 q 0,-0.192236 -0.15089,-0.28112 -0.1509,-0.09095 -0.45062,-0.09922 l -0.5457,-0.01447 0.0413,-0.460953 0.46302,0.0062 q 0.57464,0.0083 0.85369,0.235644 0.27905,0.225309 0.27905,0.659391 v 0.851627 l 0.33073,0.04548 v 0.413415 z m -0.0682,-0.921906 q -0.11162,-0.02067 -0.2129,-0.02274 -0.0992,-0.0041 -0.20878,-0.0041 -0.48782,0 -0.48782,0.287321 0,0.258382 0.33486,0.258382 0.19224,0 0.31833,-0.06821 0.12816,-0.07028 0.19223,-0.1757 0.0641,-0.107487 0.0641,-0.221175 z m 1.19683,0.901236 v -0.46302 h 0.82062 v -1.265038 h -0.6966 v -0.463021 h 1.20509 v 1.728059 h 0.65939 v 0.46302 z m 1.0542,-2.507338 q -0.14677,0 -0.24185,-0.09508 -0.0951,-0.09508 -0.0951,-0.241845 0,-0.146761 0.0951,-0.241846 0.0951,-0.09508 0.24185,-0.09508 0.14676,0 0.24184,0.09508 0.0951,0.09509 0.0951,0.241846 0,0.146761 -0.0951,0.241845 -0.0951,0.09508 -0.24184,0.09508 z m 2.75951,2.507338 v -1.343586 q 0,-0.198437 -0.0909,-0.305924 -0.0889,-0.107487 -0.25424,-0.107487 -0.46096,0 -0.46096,0.607714 v 1.149283 h -0.51056 v -2.191079 h 0.45889 l 0.0434,0.396875 h 0.0579 q 0.0269,-0.221175 0.15503,-0.328662 0.12816,-0.109554 0.38447,-0.109554 0.34727,0 0.53744,0.21084 0.19017,0.210839 0.19017,0.595312 v 1.426268 z m 0.83716,0 z m 2.83187,0 v -2.935219 h 1.98437 v 0.458887 h -1.48621 v 0.899169 h 1.09347 v 0.460953 h -1.09347 v 1.11621 z m 2.43912,0 v -0.46302 h 0.82063 v -1.265038 h -0.6966 v -0.463021 h 1.20509 v 1.728059 h 0.65939 v 0.46302 z m 1.0542,-2.507338 q -0.14676,0 -0.24184,-0.09508 -0.0951,-0.09508 -0.0951,-0.241845 0,-0.146761 0.0951,-0.241846 0.0951,-0.09508 0.24184,-0.09508 0.14676,0 0.24185,0.09508 0.0951,0.09509 0.0951,0.241846 0,0.146761 -0.0951,0.241845 -0.0951,0.09508 -0.24185,0.09508 z m 2.24276,1.564761 v 0.500227 h 0.52296 v 0.44235 h -1.50481 v -0.44235 h 0.47335 v -1.306379 h -0.39067 v -0.44235 h 0.81649 l 0.0682,0.520898 h 0.0682 q 0.0331,-0.562239 0.57671,-0.562239 0.64492,0 0.64492,0.864029 h -0.50849 q 0,-0.212906 -0.0724,-0.305924 -0.0703,-0.09302 -0.22738,-0.09302 -0.23357,0 -0.3514,0.214973 -0.11575,0.214974 -0.11575,0.609782 z m 2.42465,0.983917 q -0.49196,0 -0.76894,-0.062 l 0.0599,-0.479557 q 0.24185,0.03307 0.41548,0.04961 0.17363,0.01654 0.29352,0.01654 0.30179,0 0.43615,-0.04961 0.13643,-0.04961 0.13643,-0.157096 0,-0.07028 -0.0393,-0.10542 -0.0393,-0.03721 -0.12402,-0.05994 l -0.63045,-0.175699 q -0.26252,-0.07235 -0.38861,-0.198438 -0.12609,-0.128157 -0.12609,-0.359667 0,-0.357601 0.28732,-0.525032 0.28939,-0.167432 0.89917,-0.167432 0.14676,0 0.29352,0.01033 0.14676,0.01034 0.30593,0.03101 l -0.0538,0.463021 q -0.17983,-0.01654 -0.31626,-0.02274 -0.13435,-0.0062 -0.24184,-0.0062 -0.34313,0 -0.4961,0.04754 -0.15296,0.04754 -0.15296,0.152962 0,0.07028 0.0455,0.103353 0.0455,0.03307 0.14056,0.05788 l 0.52916,0.142626 q 0.308,0.07855 0.45476,0.221175 0.14882,0.142627 0.14882,0.388607 0,0.349332 -0.27078,0.516767 -0.26872,0.16743 -0.83716,0.16743 z m 3.08819,0 q -0.54157,0 -0.78135,-0.21911 -0.23771,-0.219105 -0.23771,-0.700728 v -0.84956 h -0.53537 v -0.463021 h 0.53537 v -0.661458 h 0.50849 v 0.661458 h 0.98185 v 0.463021 h -0.98185 V 99.3282 q 0,0.256315 0.12816,0.37207 0.13022,0.113688 0.42375,0.113688 0.0972,0 0.20877,-0.01033 0.11162,-0.0124 0.25425,-0.03101 l 0.0496,0.467152 q -0.1385,0.0248 -0.27079,0.0372 -0.13229,0.0124 -0.28318,0.0124 z m 0.80201,-0.0413 z m 2.55282,0 0.84749,-2.935219 h 0.64079 l 0.84749,2.935219 h -0.5271 l -0.1633,-0.620117 h -0.95498 l -0.16329,0.620117 z m 0.81028,-1.079003 h 0.7152 l -0.33899,-1.283641 h -0.0372 z m 1.90789,1.079003 v -0.46302 h 0.82062 v -1.265038 h -0.69659 v -0.463021 h 1.20509 v 1.728059 h 0.65939 v 0.46302 z m 1.0542,-2.507338 q -0.14676,0 -0.24184,-0.09508 -0.0951,-0.09508 -0.0951,-0.241845 0,-0.146761 0.0951,-0.241846 0.0951,-0.09508 0.24184,-0.09508 0.14676,0 0.24185,0.09508 0.0951,0.09509 0.0951,0.241846 0,0.146761 -0.0951,0.241845 -0.0951,0.09508 -0.24185,0.09508 z m 2.16007,2.548678 q -0.41754,0 -0.64285,-0.289387 -0.22324,-0.289387 -0.22324,-0.837157 0,-0.556038 0.22531,-0.851627 0.2253,-0.295589 0.64285,-0.295589 0.48162,0 0.54777,0.438216 h 0.0496 v -1.306379 h 0.51056 v 3.100583 l -0.44442,0.0207 -0.0641,-0.417545 h -0.0455 q -0.0269,0.212905 -0.17156,0.326595 -0.1447,0.11162 -0.38448,0.11162 z m 0.59945,-1.105873 v -0.05994 q 0,-0.642854 -0.46716,-0.642854 -0.23357,0 -0.3576,0.175699 -0.12402,0.1757 -0.12402,0.506429 0,0.661458 0.48162,0.661458 0.24598,0 0.35554,-0.157096 0.11162,-0.157097 0.11162,-0.483691 z"
               id="path14" /></g></g></g></g></g></svg>
